<mxfile host="app.diagrams.net" agent="Mozilla/5.0 (Macintosh; Intel Mac OS X 10_15_7) AppleWebKit/537.36 (KHTML, like Gecko) Chrome/134.0.0.0 YaBrowser/25.4.0.0 Safari/537.36" version="27.0.3">
  <diagram name="Страница — 1" id="Q_TqnMd60Y5xrBq84Lnu">
    <mxGraphModel dx="949" dy="625" grid="1" gridSize="10" guides="1" tooltips="1" connect="1" arrows="1" fold="1" page="1" pageScale="1" pageWidth="827" pageHeight="1169" math="0" shadow="0">
      <root>
        <mxCell id="0" />
        <mxCell id="1" parent="0" />
        <mxCell id="SbHNlqQ4_Z2gNKumwtwM-5" style="edgeStyle=orthogonalEdgeStyle;rounded=0;orthogonalLoop=1;jettySize=auto;html=1;entryX=0.5;entryY=0;entryDx=0;entryDy=0;" edge="1" parent="1" source="SbHNlqQ4_Z2gNKumwtwM-3" target="SbHNlqQ4_Z2gNKumwtwM-4">
          <mxGeometry relative="1" as="geometry" />
        </mxCell>
        <mxCell id="SbHNlqQ4_Z2gNKumwtwM-3" value="Telegram Bot" style="ellipse;whiteSpace=wrap;html=1;aspect=fixed;" vertex="1" parent="1">
          <mxGeometry x="380" y="130" width="100" height="100" as="geometry" />
        </mxCell>
        <mxCell id="SbHNlqQ4_Z2gNKumwtwM-4" value="Telegram Adapter" style="rounded=1;whiteSpace=wrap;html=1;" vertex="1" parent="1">
          <mxGeometry x="370" y="290" width="120" height="60" as="geometry" />
        </mxCell>
        <mxCell id="SbHNlqQ4_Z2gNKumwtwM-7" value="" style="shape=cylinder3;whiteSpace=wrap;html=1;boundedLbl=1;backgroundOutline=1;size=15;" vertex="1" parent="1">
          <mxGeometry x="230" y="400" width="60" height="80" as="geometry" />
        </mxCell>
      </root>
    </mxGraphModel>
  </diagram>
</mxfile>
